{"title":"The Being (1983) DVDRip - RadioResearch","uid":8466728,"size":928894355,"categoryP":"video","categoryS":"movies","magnet":"?xt=urn:btih:f9625b78d36e0189a8cdecc8084c4af94a2113ff&amp;dn=The+Being+%281983%29+DVDRip+-+RadioResearch&amp;tr=udp%3A%2F%2Ftracker.openbittorrent.com%3A80&amp;tr=udp%3A%2F%2Fopen.demonii.com%3A1337&amp;tr=udp%3A%2F%2Ftracker.coppersurfer.tk%3A6969&amp;tr=udp%3A%2F%2Fexodus.desync.com%3A6969","seeders":0,"leechers":0,"uploader":"RadioResearch","files":3,"time":1368376341,"description":"*******************************************************************************\n                    The Being (1983) DVDRip - RadioResearch\n*******************************************************************************\n\n-------------------------------------------------------------------------------\n                              General Information\n-------------------------------------------------------------------------------\nType.................: Movie\n\n\n\nVideo Format.........: AVI\nVideo Bitrate........: 1512\nResolution...........: 720 x 404\nColor................: 8 bit\nFPS..................: 29.970\nSource...............: DVD 16x9\nOriginal Format......: NTSC\nGenre................: Horror / Sci-Fi\nIMDb Rating..........: 3.1\nMovie Information....: http://www.imdb.com/title/tt0085224/\n\n-------------------------------------------------------------------------------\n                               Post Information\n-------------------------------------------------------------------------------\nPosted by............: RadioResearch\nPosted on............: 5/12/2013\n\n-------------------------------------------------------------------------------\n                                 Release Notes\n-------------------------------------------------------------------------------\nSEEDBOX SUPPORTED!!\n\nToxic waste dumping in a small Idaho town turns a young boy into horrible mutant \nmonster. The town's police chief and a government scientist team up to stop the \nmonster, which is quickly killing off the town's citizenry. \n\nSome retro-schlock for an evening's enjoyment.  A bit of a rarity, so I 2-pass \nencoded for best quality.  This is right out of the &quot;so bad it's good&quot; \ncollection.  Good for a laugh and to see some of these minor stars in their \nheyday.\n\nEnjoy!\n\nRadioResearch\n\nGeneral\nComplete name                            : G:The Being (1983) DVDRip - \nRadioResearchTHE_BEING.{RadioResearch}.avi\nFormat                                   : AVI\nFormat/Info                              : Audio Video Interleave\nFile size                                : 886 MiB\nDuration                                 : 1h 21mn\nOverall bit rate                         : 1 512 Kbps\nMovie name                               : THE_BEING.Title1.DVDRip\nWriting application                      : Lavf53.32.100\nOriginal source form/Name                : THE_BEING\n\nVideo\nID                                       : 0\nFormat                                   : MPEG-4 Visual\nFormat profile                           : Advanced Simple@L5\nFormat settings, BVOP                    : 2\nFormat settings, QPel                    : No\nFormat settings, GMC                     : No warppoints\nFormat settings, Matrix                  : Default (H.263)\nMuxing mode                              : Packed bitstream\nCodec ID                                 : XVID\nCodec ID/Hint                            : XviD\nDuration                                 : 1h 21mn\nBit rate                                 : 1 308 Kbps\nWidth                                    : 720 pixels\nHeight                                   : 404 pixels\nDisplay aspect ratio                     : 16:9\nFrame rate                               : 29.970 fps\nColor space                              : YUV\nChroma subsampling                       : 4:2:0\nBit depth                                : 8 bits\nScan type                                : Progressive\nCompression mode                         : Lossy\nBits/(Pixel*Frame)                       : 0.150\nStream size                              : 766 MiB (87%)\nWriting library                          : XviD 64\n\nAudio\nID                                       : 1\nFormat                                   : AC-3\nFormat/Info                              : Audio Coding 3\nMode extension                           : CM (complete main)\nFormat settings, Endianness              : Big\nCodec ID                                 : 2000\nDuration                                 : 1h 21mn\nBit rate mode                            : Constant\nBit rate                                 : 192 Kbps\nChannel(s)                               : 2 channels\nChannel positions                        : Front: L R\nSampling rate                            : 48.0 KHz\nBit depth                                : 16 bits\nCompression mode                         : Lossy\nStream size                              : 113 MiB (13%)\nAlignment                                : Aligned on interleaves\nInterleave, duration                     : 32 ms (0.96 video frame)\n\nAVI FILE MD5 HASH  c737cb1aab710ad1d598b718400680cb\n\n\n\n-------------------------------------------------------------------------------\nGenerated with Cool NFO Creator - http://fly.to/coolbeans\n-------------------------------------------------------------------------------\n","torrent":{"xt":"urn:btih:f9625b78d36e0189a8cdecc8084c4af94a2113ff","amp;dn":"The+Being+%281983%29+DVDRip+-+RadioResearch","amp;tr":["udp%3A%2F%2Ftracker.openbittorrent.com%3A80","udp%3A%2F%2Fopen.demonii.com%3A1337","udp%3A%2F%2Ftracker.coppersurfer.tk%3A6969","udp%3A%2F%2Fexodus.desync.com%3A6969"],"infoHash":"f9625b78d36e0189a8cdecc8084c4af94a2113ff","infoHashBuffer":{"type":"Buffer","data":[249,98,91,120,211,110,1,137,168,205,236,200,8,76,74,249,74,33,19,255]},"announce":[],"urlList":[]}}